<svg xmlns="http://www.w3.org/2000/svg" viewBox="0 0 64 64" role="img" aria-label="FitConnect">
  <defs>
    <linearGradient id="plate" x1="0" y1="0" x2="1" y2="1">
      <stop offset="0%" stop-color="#2a2e38"/>
      <stop offset="50%" stop-color="#12141a"/>
      <stop offset="100%" stop-color="#08090c"/>
    </linearGradient>
    <linearGradient id="metal" x1="0" y1="0" x2="0.85" y2="1">
      <stop offset="0%" stop-color="#eef0f4"/>
      <stop offset="18%" stop-color="#9aa3b2"/>
      <stop offset="48%" stop-color="#3a404c"/>
      <stop offset="78%" stop-color="#1a1d24"/>
      <stop offset="100%" stop-color="#0c0d11"/>
    </linearGradient>
    <linearGradient id="metal-shadow" x1="0" y1="0" x2="0" y2="1">
      <stop offset="0%" stop-color="#1a1d24"/>
      <stop offset="100%" stop-color="#050608"/>
    </linearGradient>
    <linearGradient id="volt-edge" x1="0" y1="0" x2="1" y2="0">
      <stop offset="0%" stop-color="#c8ff00" stop-opacity="0.15"/>
      <stop offset="45%" stop-color="#d6ff33"/>
      <stop offset="100%" stop-color="#c8ff00" stop-opacity="0.55"/>
    </linearGradient>
  </defs>
  <rect x="4" y="4" width="56" height="56" rx="15" fill="url(#plate)"/>
  <ellipse cx="32" cy="32" rx="22" ry="18" fill="#c8ff00" opacity="0.06"/>
  <path d="M18 14 L24 14 L24 50 L18 50 Z" fill="url(#metal-shadow)"/>
  <path d="M17 13 L23 13 L23 49 L17 49 Z" fill="url(#metal)"/>
  <path d="M23 15 L48 12 L46 21 L23 22 Z" fill="url(#metal-shadow)"/>
  <path d="M22 14 L47 11 L45 20 L22 21 Z" fill="url(#metal)"/>
  <path d="M22 14 L47 11" stroke="url(#volt-edge)" stroke-width="1.4" stroke-linecap="round"/>
  <path d="M23 27 L42 25 L40 32 L23 33 Z" fill="url(#metal-shadow)"/>
  <path d="M22 26 L41 24 L39 31 L22 32 Z" fill="url(#metal)"/>
  <path d="M22 26 L41 24" stroke="url(#volt-edge)" stroke-width="1.2" stroke-linecap="round" opacity="0.9"/>
  <path d="M23 37 L34 36 L32 42 L23 43 Z" fill="url(#metal-shadow)"/>
  <path d="M22 36 L33 35 L31 41 L22 42 Z" fill="url(#metal)"/>
  <path d="M22 36 L33 35" stroke="#c8ff00" stroke-width="1" stroke-linecap="round" opacity="0.75"/>
</svg>
